<?xml version="1.0" encoding="UTF-8" standalone="no"?>
<svg
   xmlns:dc="http://purl.org/dc/elements/1.1/"
   xmlns:cc="http://creativecommons.org/ns#"
   xmlns:rdf="http://www.w3.org/1999/02/22-rdf-syntax-ns#"
   xmlns:svg="http://www.w3.org/2000/svg"
   xmlns="http://www.w3.org/2000/svg"
   xmlns:sodipodi="http://sodipodi.sourceforge.net/DTD/sodipodi-0.dtd"
   xmlns:inkscape="http://www.inkscape.org/namespaces/inkscape"
   id="svg7384"
   width="32"
   height="32"
   version="1.1"
   sodipodi:docname="client.svg"
   inkscape:version="0.92.3 (2405546, 2018-03-11)">
  <sodipodi:namedview
     pagecolor="#ffffff"
     bordercolor="#666666"
     borderopacity="1"
     objecttolerance="10"
     gridtolerance="10"
     guidetolerance="10"
     inkscape:pageopacity="0"
     inkscape:pageshadow="2"
     inkscape:window-width="1366"
     inkscape:window-height="712"
     id="namedview8"
     showgrid="false"
     inkscape:zoom="1.3037281"
     inkscape:cx="122.21066"
     inkscape:cy="35.16392"
     inkscape:window-x="0"
     inkscape:window-y="30"
     inkscape:window-maximized="1"
     inkscape:current-layer="svg7384" />
  <defs
     id="defs10" />
  <metadata
     id="metadata90">
    <rdf:RDF>
      <cc:Work
         rdf:about="">
        <dc:format>image/svg+xml</dc:format>
        <dc:type
           rdf:resource="http://purl.org/dc/dcmitype/StillImage" />
        <dc:title>Gnome Symbolic Icon Theme</dc:title>
      </cc:Work>
    </rdf:RDF>
  </metadata>
  <title
     id="title9167">Gnome Symbolic Icon Theme</title>
  <path
     style="font-style:normal;font-weight:normal;font-size:medium;line-height:125%;font-family:sans-serif;letter-spacing:0px;word-spacing:25.29999924px;fill:#0066ff;fill-opacity:1;stroke:none;stroke-width:1.00195312px;stroke-linecap:butt;stroke-linejoin:miter;stroke-opacity:1"
     d="M 16 20.023438 C 12.631579 20.023437 9.1080466 20.772455 5.4277344 22.269531 C 1.8098007 23.704229 1.976256e-16 25.606193 0 27.976562 L 0 32 L 32 32 L 32 27.976562 C 32 25.606193 30.160781 23.704229 26.480469 22.269531 C 22.862535 20.772455 19.368421 20.023438 16 20.023438 z "
     id="path833" />
  <path
     style="font-style:normal;font-weight:normal;font-size:medium;line-height:125%;font-family:sans-serif;letter-spacing:0px;word-spacing:25.29999924px;fill:#ffb380;fill-opacity:1;stroke:none;stroke-width:1.00195312px;stroke-linecap:butt;stroke-linejoin:miter;stroke-opacity:1"
     d="M 16 0 C 13.816764 0 11.946173 0.81176139 10.386719 2.4335938 C 8.8272646 3.9930479 8.046875 5.8636391 8.046875 8.046875 C 8.046875 10.230111 8.8272646 12.100702 10.386719 13.660156 C 11.946173 15.21961 13.816764 16 16 16 C 18.183236 16 20.053827 15.21961 21.613281 13.660156 C 23.172735 12.100702 23.953125 10.230111 23.953125 8.046875 C 23.953125 5.8636391 23.172735 3.993048 21.613281 2.4335938 C 20.053827 0.81176139 18.183236 -1.0389388e-17 16 0 z "
     id="path1182" />
</svg>
