<?xml version="1.0" encoding="UTF-8" standalone="no"?>
<svg
   xmlns:dc="http://purl.org/dc/elements/1.1/"
   xmlns:cc="http://creativecommons.org/ns#"
   xmlns:rdf="http://www.w3.org/1999/02/22-rdf-syntax-ns#"
   xmlns:svg="http://www.w3.org/2000/svg"
   xmlns="http://www.w3.org/2000/svg"
   id="svg7384"
   width="16"
   height="16"
   version="1.1">
  <defs
     id="defs10" />
  <title
     id="title9167">Gnome Symbolic Icon Theme</title>
  <metadata
     id="metadata90">
    <rdf:RDF>
      <cc:Work
         rdf:about="">
        <dc:format>image/svg+xml</dc:format>
        <dc:type
           rdf:resource="http://purl.org/dc/dcmitype/StillImage" />
        <dc:title>Gnome Symbolic Icon Theme</dc:title>
      </cc:Work>
    </rdf:RDF>
  </metadata>
  <g
     transform="matrix(0.28362643,0,0,0.28362643,9.382958,15.38376)"
     id="text821"
     style="font-style:normal;font-weight:normal;font-size:48px;line-height:125%;font-family:sans-serif;letter-spacing:0px;word-spacing:25.29999924px;writing-mode:lr-tb;direction:rtl;fill:#797979;fill-opacity:1;stroke:none;stroke-width:3.5257647px;stroke-linecap:butt;stroke-linejoin:miter;stroke-opacity:1"
     aria-label="">
    <path
       id="path823"
       style="fill:#797979;fill-opacity:1;stroke-width:3.5257647px"
       d="m -3.8501053,-36.065148 v 10.5 l 9,5.34375 -1.5,2.53125 -10.5,-6.375 v -12 z m -12.3749997,21.375 q 4.78125,4.6875 11.3437497,4.6875 6.5625,0 11.25,-4.6875 4.7812503,-4.78125 4.7812503,-11.34375 0,-6.5625 -4.7812503,-11.25 -4.6875,-4.78125 -11.25,-4.78125 -6.5624997,0 -11.3437497,4.78125 -4.6875,4.6875 -4.6875,11.25 0,6.5625 4.6875,11.34375 z m -2.8125,-25.40625 q 5.90625,-5.90625 14.1562497,-5.90625 8.25,0 14.0625,5.90625 5.9062503,5.8125 5.9062503,14.0625 0,8.25 -5.9062503,14.15625 -5.8125,5.8125001 -14.0625,5.8125001 -8.2499997,0 -14.1562497,-5.8125001 -5.8125,-5.90625 -5.8125,-14.15625 0,-8.25 5.8125,-14.0625 z" />
  </g>
</svg>
