<?xml version="1.0" encoding="UTF-8" standalone="no"?>
<svg
   xmlns:dc="http://purl.org/dc/elements/1.1/"
   xmlns:cc="http://creativecommons.org/ns#"
   xmlns:rdf="http://www.w3.org/1999/02/22-rdf-syntax-ns#"
   xmlns:svg="http://www.w3.org/2000/svg"
   xmlns="http://www.w3.org/2000/svg"
   xmlns:sodipodi="http://sodipodi.sourceforge.net/DTD/sodipodi-0.dtd"
   xmlns:inkscape="http://www.inkscape.org/namespaces/inkscape"
   version="1.1"
   height="32"
   width="32"
   id="svg7384"
   sodipodi:docname="coast-calculation.svg"
   inkscape:version="0.92.3 (2405546, 2018-03-11)">
  <sodipodi:namedview
     pagecolor="#ffffff"
     bordercolor="#666666"
     borderopacity="1"
     objecttolerance="10"
     gridtolerance="10"
     guidetolerance="10"
     inkscape:pageopacity="0"
     inkscape:pageshadow="2"
     inkscape:window-width="1366"
     inkscape:window-height="712"
     id="namedview7"
     showgrid="false"
     inkscape:zoom="10.429825"
     inkscape:cx="6.1087096"
     inkscape:cy="0.064128055"
     inkscape:window-x="0"
     inkscape:window-y="30"
     inkscape:window-maximized="1"
     inkscape:current-layer="svg7384" />
  <defs
     id="defs10" />
  <metadata
     id="metadata90">
    <rdf:RDF>
      <cc:Work
         rdf:about="">
        <dc:format>image/svg+xml</dc:format>
        <dc:type
           rdf:resource="http://purl.org/dc/dcmitype/StillImage" />
        <dc:title>Gnome Symbolic Icon Theme</dc:title>
      </cc:Work>
    </rdf:RDF>
  </metadata>
  <title
     id="title9167">Gnome Symbolic Icon Theme</title>
  <path
     style="opacity:1;vector-effect:none;fill:#0066ff;fill-opacity:1;stroke:none;stroke-width:1.99999988;stroke-linecap:square;stroke-linejoin:round;stroke-miterlimit:4;stroke-dasharray:none;stroke-dashoffset:0;stroke-opacity:1;paint-order:stroke fill markers"
     d="M 13.093402,6.5511785 A 12.355645,12.355645 0 0 0 0.7379833,18.906598 12.355645,12.355645 0 0 0 13.093402,31.262016 12.355645,12.355645 0 0 0 25.243247,21.08607 h -2.459282 v -1.941539 c -0.373147,-0.149523 -0.762677,-0.270258 -1.098303,-0.481577 -0.553256,-0.348347 -1.044218,-0.774911 -1.458056,-1.271518 l -0.002,-0.0038 -0.0038,-0.0038 C 19.80166,16.869094 19.47589,16.282963 19.249183,15.644063 v -0.0019 l -0.0019,-0.0019 C 19.016168,14.97827 18.906647,14.264255 18.906647,13.516071 v -0.974577 h 3.877367 v -1.29636 A 12.355645,12.355645 0 0 0 22.57268,11.00149 C 22.291091,10.89549 22.003476,10.794392 21.748478,10.664576 21.191783,10.381168 20.695985,10.031652 20.271385,9.6176675 19.86942,9.2257511 19.554144,8.7591527 19.317747,8.2490731 A 12.355645,12.355645 0 0 0 13.093402,6.5511785 Z m 7.914626,7.9393705 c 0.03494,0.161824 0.02803,0.357643 0.07994,0.506323 0.155075,0.435622 0.36517,0.812319 0.637663,1.147792 8.77e-4,0.0011 0.0029,8.31e-4 0.0038,0.0019 0.281985,0.337717 0.607907,0.625131 0.993612,0.867982 0.294645,0.185518 0.640205,0.308792 0.9879,0.430184 l -0.500612,-0.340722 c -0.593149,-0.402944 -1.068578,-0.94961 -1.383815,-1.591345 l -0.0038,-0.0058 -0.0019,-0.0057 c -0.149963,-0.316578 -0.153637,-0.67197 -0.228417,-1.010742 z m 3.72509,3.230187 v 0.0552 0.0019 h 0.230319 z"
     id="path873"
     inkscape:connector-curvature="0" />
  <path
     inkscape:connector-curvature="0"
     style="font-style:normal;font-weight:normal;font-size:31.31554222px;line-height:125%;font-family:sans-serif;letter-spacing:0px;word-spacing:16.50589943px;fill:#00d400;fill-opacity:1;stroke:none;stroke-width:0.99999994px;stroke-linecap:butt;stroke-linejoin:miter;stroke-opacity:1"
     d="m 13.10292,6.2009401 c -3.4970131,0 -6.4960598,1.2500982 -8.999603,3.7536414 -2.4638045,2.4638045 -3.69653735,5.4454855 -3.69653735,8.9424985 0,3.497013 1.23273285,6.49606 3.69653735,8.999603 2.5035432,2.463805 5.5025899,3.696537 8.999603,3.696537 3.497013,0 6.478694,-1.232732 8.942498,-3.696537 1.963409,-1.963408 3.1435,-4.23617 3.567102,-6.810613 h -0.335011 -2.209928 c -0.365245,1.746538 -1.176947,3.303669 -2.453572,4.665403 -0.437126,-1.192163 -1.25189,-1.787358 -2.444055,-1.787358 h -1.252482 v -3.816456 c 0,-0.357649 -0.117515,-0.654294 -0.355948,-0.892726 C 16.323091,19.0165 16.024542,18.89708 15.666893,18.89708 H 8.0358845 v -2.563973 h 2.5049665 c 0.357649,0 0.654293,-0.119419 0.892726,-0.357852 0.278171,-0.238433 0.418764,-0.535078 0.418764,-0.892727 v -2.563974 h 2.503062 c 0.675559,0 1.270753,-0.238838 1.787357,-0.715704 0.516604,-0.516604 0.774712,-1.111798 0.774712,-1.787357 V 9.4787143 c 1.662617,0.6581197 3.037746,1.6799617 4.126721,3.0626817 h 1.739772 V 11.087145 C 22.433992,10.95092 22.068767,10.827633 21.748478,10.664576 21.191783,10.381168 20.695985,10.031652 20.271385,9.6176675 19.832105,9.189368 19.483546,8.6793766 19.243512,8.1120233 19.185546,7.9750131 19.136606,7.8331858 19.093137,7.6894531 17.301158,6.6973162 15.304352,6.2009401 13.10292,6.2009401 Z M 3.2086864,16.631952 9.2883672,22.711633 v 1.252482 c 0,0.67556 0.2581079,1.270754 0.7747118,1.787358 0.516605,0.516604 1.113702,0.774712 1.789262,0.774712 V 28.97024 C 9.3487972,28.652329 7.2223213,27.539016 5.4738149,25.631554 3.7650473,23.724093 2.9098418,21.480101 2.9098418,18.89708 c 0,-0.715298 0.1001507,-1.470353 0.2988446,-2.265128 z"
     id="text939" />
  <text
     xml:space="preserve"
     style="font-style:normal;font-weight:normal;font-size:26.74248123px;line-height:125%;font-family:sans-serif;letter-spacing:0px;word-spacing:14.09551525px;fill:#00d400;fill-opacity:1;stroke:none;stroke-width:0.99999994px;stroke-linecap:butt;stroke-linejoin:miter;stroke-opacity:1;"
     x="18.70512"
     y="18.753061"
     id="text951"><tspan
       sodipodi:role="line"
       id="tspan949"
       x="18.70512"
       y="18.753061"
       style="font-style:normal;font-variant:normal;font-weight:normal;font-stretch:normal;font-family:'Abyssinica SIL';-inkscape-font-specification:'Abyssinica SIL';fill:#00d400;fill-opacity:1;stroke-width:0.99999994px;">$</tspan></text>
</svg>
