<?xml version="1.0" encoding="UTF-8" standalone="no"?>
<svg
   xmlns:dc="http://purl.org/dc/elements/1.1/"
   xmlns:cc="http://creativecommons.org/ns#"
   xmlns:rdf="http://www.w3.org/1999/02/22-rdf-syntax-ns#"
   xmlns:svg="http://www.w3.org/2000/svg"
   xmlns="http://www.w3.org/2000/svg"
   version="1.1"
   height="32"
   width="32"
   id="svg7384">
  <defs
     id="defs10" />
  <metadata
     id="metadata90">
    <rdf:RDF>
      <cc:Work
         rdf:about="">
        <dc:format>image/svg+xml</dc:format>
        <dc:type
           rdf:resource="http://purl.org/dc/dcmitype/StillImage" />
        <dc:title>Gnome Symbolic Icon Theme</dc:title>
      </cc:Work>
    </rdf:RDF>
  </metadata>
  <title
     id="title9167">Gnome Symbolic Icon Theme</title>
  <path
     id="path845"
     d="M 19.103516,7.984375 22.6875,4.4003906 19.287109,1 H 4.3339844 V 31 H 27.666016 V 9.3789062 L 27.599609,9.3125 24.015625,12.896484"
     style="opacity:1;vector-effect:none;fill:none;fill-opacity:1;stroke:#797979;stroke-width:1;stroke-linecap:butt;stroke-linejoin:round;stroke-miterlimit:4;stroke-dasharray:none;stroke-dashoffset:0;stroke-opacity:1;paint-order:normal" />
  <path
     id="path847"
     d="M 19.287109 1 L 19.287109 7.8007812 L 22.6875 4.4003906 L 19.287109 1 z M 27.599609 9.3125 L 27.533203 9.3789062 L 27.666016 9.3789062 L 27.599609 9.3125 z "
     style="opacity:1;vector-effect:none;fill:none;fill-opacity:1;stroke:#797979;stroke-width:1;stroke-linecap:butt;stroke-linejoin:round;stroke-miterlimit:4;stroke-dasharray:none;stroke-dashoffset:0;stroke-opacity:1;paint-order:normal" />
  <path
     d="m 12.053696,23.915719 v 1.89144 c -0.01873,0.561814 -0.13109,1.067447 -0.337088,1.498171 -0.168545,0.374543 -0.430724,0.730358 -0.805267,1.011265 -0.374543,0.299634 -0.880175,0.468178 -1.5543521,0.468178 -0.6741768,0 -1.1985365,-0.168544 -1.5730792,-0.468178 C 7.4093671,28.035688 7.1659144,27.679873 6.9973702,27.30533 6.7913717,26.874606 6.6790089,26.368973 6.6602818,25.807159 v -8.108848 c 0.018727,-0.543087 0.1310899,-1.04872 0.3370884,-1.479444 0.1685442,-0.374542 0.4119969,-0.749085 0.7865395,-1.029992 0.3745427,-0.280907 0.8989024,-0.468178 1.5730792,-0.468178 0.6741771,0 1.1798091,0.187271 1.5543521,0.468178 0.374543,0.280907 0.636722,0.65545 0.805267,1.029992 0.205998,0.430724 0.318361,0.936357 0.337088,1.479444 v 1.89144 h -1.89144 v -1.89144 c 0,-0.374543 -0.09364,-0.636723 -0.2996345,-0.861448 -0.093636,-0.09364 -0.2621799,-0.149817 -0.4681783,-0.149817 -0.3558156,0 -0.5243598,0.262179 -0.6179954,0.505632 -0.056181,0.149817 -0.074908,0.318361 -0.093636,0.505633 v 8.108848 c 0.018727,0.39327 0.13109,0.65545 0.3183613,0.861448 0.093636,0.09364 0.2247256,0.149817 0.3932698,0.149817 0.430724,0 0.5992682,-0.224725 0.6929041,-0.505632 0.05618,-0.13109 0.07491,-0.299634 0.07491,-0.505633 v -1.89144 z"
     style="font-style:normal;font-variant:normal;font-weight:normal;font-stretch:normal;font-size:medium;line-height:125%;font-family:'League Gothic';-inkscape-font-specification:'League Gothic';letter-spacing:0px;word-spacing:0px;writing-mode:lr-tb;direction:ltr;fill:#797979;fill-opacity:1;stroke:none;stroke-width:1px;stroke-linecap:butt;stroke-linejoin:miter;stroke-opacity:1"
     id="path916" />
  <path
     d="m 16.617557,18.559759 c 0,-0.449451 -0.01873,-0.955084 -0.149817,-1.348354 -0.13109,-0.374542 -0.337089,-0.636722 -0.65545,-0.636722 -0.52436,0.01873 -0.692904,0.561814 -0.692904,1.367081 0,0.468178 0.205998,0.955083 0.505633,1.479443 0.299634,0.52436 0.692903,1.067447 1.086173,1.647988 0.468179,0.692904 0.936357,1.404535 1.292172,2.097439 0.355816,0.692903 0.599269,1.404535 0.599269,2.15362 0,0.917629 -0.149817,1.779077 -0.580541,2.4158 -0.430725,0.636723 -1.123628,1.048719 -2.228529,1.048719 -1.292172,0 -2.022531,-0.486905 -2.434528,-1.23599 -0.411996,-0.749086 -0.505632,-1.741624 -0.505632,-2.771616 l 1.985076,-0.187271 c 0,0.580541 0.01873,1.161082 0.168544,1.591806 0.13109,0.449451 0.355816,0.749085 0.78654,0.749085 0.599268,0 0.823994,-0.636722 0.823994,-1.516897 0,-0.449452 -0.224726,-0.973811 -0.52436,-1.516898 -0.168544,-0.26218 -0.337089,-0.543087 -0.52436,-0.823994 -0.39327,-0.561814 -0.823994,-1.198537 -1.273445,-1.89144 -0.449451,-0.692904 -0.786539,-1.404535 -0.992538,-2.134894 -0.112363,-0.355815 -0.168544,-0.730358 -0.168544,-1.1049 0,-0.749086 0.168544,-1.554352 0.599268,-2.172348 0.430724,-0.599268 1.086174,-1.029992 2.041258,-1.048719 1.217263,-0.01873 1.928894,0.486905 2.322164,1.217263 0.39327,0.749086 0.505633,1.666715 0.505633,2.434528 z"
     style="font-style:normal;font-variant:normal;font-weight:normal;font-stretch:normal;font-size:medium;line-height:125%;font-family:'League Gothic';-inkscape-font-specification:'League Gothic';letter-spacing:0px;word-spacing:0px;writing-mode:lr-tb;direction:ltr;fill:#797979;fill-opacity:1;stroke:none;stroke-width:1px;stroke-linecap:butt;stroke-linejoin:miter;stroke-opacity:1"
     id="path918" />
  <path
     d="m 23.37337,14.870514 h 1.966349 L 23.24228,28.634956 H 21.219749 L 19.122311,14.870514 h 1.966348 l 1.011266,7.565761 0.07491,0.580542 h 0.112363 l 0.07491,-0.580542 z"
     style="font-style:normal;font-variant:normal;font-weight:normal;font-stretch:normal;font-size:medium;line-height:125%;font-family:'League Gothic';-inkscape-font-specification:'League Gothic';letter-spacing:0px;word-spacing:0px;writing-mode:lr-tb;direction:ltr;fill:#797979;fill-opacity:1;stroke:none;stroke-width:1px;stroke-linecap:butt;stroke-linejoin:miter;stroke-opacity:1"
     id="path920" />
  <path
     id="path850"
     d="m 22.564453,2 1.791016,1.7929688 -6.0625,6.0625 3.851562,3.8515622 6.0625,-6.0644529 L 30,9.4355469 V 2 Z"
     style="color:#000000;font-style:normal;font-variant:normal;font-weight:normal;font-stretch:normal;font-size:medium;line-height:normal;font-family:sans-serif;font-variant-ligatures:normal;font-variant-position:normal;font-variant-caps:normal;font-variant-numeric:normal;font-variant-alternates:normal;font-feature-settings:normal;text-indent:0;text-align:start;text-decoration:none;text-decoration-line:none;text-decoration-style:solid;text-decoration-color:#000000;letter-spacing:normal;word-spacing:normal;text-transform:none;writing-mode:lr-tb;direction:ltr;text-orientation:mixed;dominant-baseline:auto;baseline-shift:baseline;text-anchor:start;white-space:normal;shape-padding:0;clip-rule:nonzero;display:inline;overflow:visible;visibility:visible;opacity:1;isolation:auto;mix-blend-mode:normal;color-interpolation:sRGB;color-interpolation-filters:linearRGB;solid-color:#000000;solid-opacity:1;vector-effect:none;fill:#797979;fill-opacity:1;fill-rule:nonzero;stroke:none;stroke-width:0.5;stroke-linecap:round;stroke-linejoin:miter;stroke-miterlimit:4;stroke-dasharray:none;stroke-dashoffset:0;stroke-opacity:1;paint-order:normal;color-rendering:auto;image-rendering:auto;shape-rendering:auto;text-rendering:auto;enable-background:accumulate" />
</svg>
