<?xml version="1.0" encoding="UTF-8" standalone="no"?>
<svg
   xmlns:dc="http://purl.org/dc/elements/1.1/"
   xmlns:cc="http://creativecommons.org/ns#"
   xmlns:rdf="http://www.w3.org/1999/02/22-rdf-syntax-ns#"
   xmlns:svg="http://www.w3.org/2000/svg"
   xmlns="http://www.w3.org/2000/svg"
   xmlns:sodipodi="http://sodipodi.sourceforge.net/DTD/sodipodi-0.dtd"
   xmlns:inkscape="http://www.inkscape.org/namespaces/inkscape"
   id="svg7384"
   width="32"
   height="32"
   version="1.1"
   sodipodi:docname="history.svg"
   inkscape:version="0.92.3 (2405546, 2018-03-11)">
  <sodipodi:namedview
     pagecolor="#ffffff"
     bordercolor="#666666"
     borderopacity="1"
     objecttolerance="10"
     gridtolerance="10"
     guidetolerance="10"
     inkscape:pageopacity="0"
     inkscape:pageshadow="2"
     inkscape:window-width="1366"
     inkscape:window-height="712"
     id="namedview8"
     showgrid="false"
     showguides="true"
     inkscape:guide-bbox="true"
     inkscape:zoom="4"
     inkscape:cx="-31.595305"
     inkscape:cy="20.828372"
     inkscape:window-x="0"
     inkscape:window-y="30"
     inkscape:window-maximized="1"
     inkscape:current-layer="svg7384" />
  <defs
     id="defs10" />
  <metadata
     id="metadata90">
    <rdf:RDF>
      <cc:Work
         rdf:about="">
        <dc:format>image/svg+xml</dc:format>
        <dc:type
           rdf:resource="http://purl.org/dc/dcmitype/StillImage" />
        <dc:title>Gnome Symbolic Icon Theme</dc:title>
      </cc:Work>
    </rdf:RDF>
  </metadata>
  <title
     id="title9167">Gnome Symbolic Icon Theme</title>
  <g
     id="g4820"
     transform="matrix(0.38396208,0,0,0.38396208,1.6398768,37.538166)"
     style="stroke-width:2.60442376">
    <path
       id="path4816"
       d="m 39.712628,-73.966013 v 18.92277 l 15.55872,9.46138 -3.15379,5.46658 -19.13303,-11.56392 v -22.28681 z"
       style="font-style:normal;font-weight:normal;font-size:medium;line-height:125%;font-family:sans-serif;letter-spacing:0px;word-spacing:0px;writing-mode:lr-tb;direction:ltr;fill:#ff6600;fill-opacity:1;stroke:none;stroke-width:2.60442376px;stroke-linecap:butt;stroke-linejoin:miter;stroke-opacity:1"
       inkscape:connector-curvature="0" />
    <path
       id="path4778"
       d="m 77.768418,-64.504633 h -30.48668 l 12.40492,-12.61517 q -9.25113,-9.25114 -22.28681,-9.25114 -12.82543,-0.21025 -22.07656,8.83063 -9.0408802,9.25113 -9.0408802,21.86631 0,12.61518 9.0408802,21.86631 9.04087,9.25113 22.07656,9.25113 13.03568,0 22.28681,-9.25113 9.04088,-9.04088 9.04088,-21.86631 h 9.04088 q 0,16.60998 -11.77417,28.1739 -11.77417,11.77416 -28.5944,11.77416 -16.82024,0 -28.5944102,-11.77416 -11.77416,-11.56392 -11.77416,-27.96365 0,-16.60998 11.77416,-28.38415 11.7741702,-11.774172 28.3841502,-11.774172 16.60999,0 28.38416,11.774172 l 12.19467,-12.615182 z"
       style="font-style:normal;font-weight:normal;font-size:medium;line-height:125%;font-family:sans-serif;letter-spacing:0px;word-spacing:0px;writing-mode:lr-tb;direction:ltr;fill:#0066ff;fill-opacity:1;stroke:none;stroke-width:2.60442376px;stroke-linecap:butt;stroke-linejoin:miter;stroke-opacity:1"
       inkscape:connector-curvature="0" />
  </g>
</svg>
