<?xml version="1.0" encoding="UTF-8" standalone="no"?>
<svg
   xmlns:dc="http://purl.org/dc/elements/1.1/"
   xmlns:cc="http://creativecommons.org/ns#"
   xmlns:rdf="http://www.w3.org/1999/02/22-rdf-syntax-ns#"
   xmlns:svg="http://www.w3.org/2000/svg"
   xmlns="http://www.w3.org/2000/svg"
   xmlns:sodipodi="http://sodipodi.sourceforge.net/DTD/sodipodi-0.dtd"
   xmlns:inkscape="http://www.inkscape.org/namespaces/inkscape"
   id="svg7384"
   width="32"
   height="32"
   version="1.1"
   sodipodi:docname="print-simple.svg"
   inkscape:version="0.92.3 (2405546, 2018-03-11)">
  <sodipodi:namedview
     pagecolor="#ffffff"
     bordercolor="#666666"
     borderopacity="1"
     objecttolerance="10"
     gridtolerance="10"
     guidetolerance="10"
     inkscape:pageopacity="0"
     inkscape:pageshadow="2"
     inkscape:window-width="1366"
     inkscape:window-height="712"
     id="namedview8"
     showgrid="false"
     inkscape:zoom="7.375"
     inkscape:cx="-8.554333"
     inkscape:cy="20.457774"
     inkscape:window-x="0"
     inkscape:window-y="30"
     inkscape:window-maximized="1"
     inkscape:current-layer="svg7384" />
  <defs
     id="defs10" />
  <metadata
     id="metadata90">
    <rdf:RDF>
      <cc:Work
         rdf:about="">
        <dc:format>image/svg+xml</dc:format>
        <dc:type
           rdf:resource="http://purl.org/dc/dcmitype/StillImage" />
        <dc:title>Gnome Symbolic Icon Theme</dc:title>
      </cc:Work>
    </rdf:RDF>
  </metadata>
  <title
     id="title9167">Gnome Symbolic Icon Theme</title>
  <path
     id="path1298"
     style="font-style:normal;font-variant:normal;font-weight:normal;font-stretch:normal;font-size:medium;line-height:125%;font-family:Michroma;-inkscape-font-specification:Michroma;letter-spacing:0px;word-spacing:153.2408905px;fill:#797979;fill-opacity:1;stroke:none;stroke-width:0.99999994px;stroke-linecap:butt;stroke-linejoin:miter;stroke-opacity:1"
     d="M 6.746812,2.1196156 V 8.2644194 H 25.253831 V 2.1196156 Z M 5.2294505,9.8543053 c -1.2530763,0 -2.3380107,0.4583337 -3.2537205,1.3740437 -0.9157107,0.91571 -1.37404443,2.000645 -1.37404443,3.253721 v 9.25365 H 6.74635 v 6.144663 h 18.5073 V 23.73572 h 6.144663 v -9.25365 c 0,-1.253076 -0.458334,-2.338011 -1.374043,-3.253721 -0.91571,-0.91571 -1.998765,-1.3740437 -3.251841,-1.3740437 z M 26.772429,12.891863 c 0.433757,0 0.795402,0.168266 1.084573,0.505633 0.337368,0.289172 0.505633,0.650818 0.505633,1.084574 0,0.433758 -0.168265,0.795402 -0.505633,1.084574 -0.289171,0.28917 -0.650816,0.432325 -1.084573,0.432325 -0.433758,0 -0.795402,-0.143155 -1.084574,-0.432325 -0.289172,-0.289172 -0.434205,-0.650816 -0.434205,-1.084574 0,-0.433756 0.145033,-0.795402 0.434205,-1.084574 0.289172,-0.337367 0.650816,-0.505633 1.084574,-0.505633 z M 9.8553359,19.107955 H 22.144664 v 7.663443 H 9.8553359 Z" />
</svg>
