<?xml version="1.0" encoding="UTF-8" standalone="no"?>
<svg
   xmlns:dc="http://purl.org/dc/elements/1.1/"
   xmlns:cc="http://creativecommons.org/ns#"
   xmlns:rdf="http://www.w3.org/1999/02/22-rdf-syntax-ns#"
   xmlns:svg="http://www.w3.org/2000/svg"
   xmlns="http://www.w3.org/2000/svg"
   xmlns:sodipodi="http://sodipodi.sourceforge.net/DTD/sodipodi-0.dtd"
   xmlns:inkscape="http://www.inkscape.org/namespaces/inkscape"
   id="svg7384"
   width="32"
   height="32"
   version="1.1"
   sodipodi:docname="print.svg"
   inkscape:version="0.92.3 (2405546, 2018-03-11)">
  <sodipodi:namedview
     pagecolor="#ffffff"
     bordercolor="#666666"
     borderopacity="1"
     objecttolerance="10"
     gridtolerance="10"
     guidetolerance="10"
     inkscape:pageopacity="0"
     inkscape:pageshadow="2"
     inkscape:window-width="1366"
     inkscape:window-height="712"
     id="namedview8"
     showgrid="false"
     inkscape:zoom="3.6875"
     inkscape:cx="10.071905"
     inkscape:cy="29.570308"
     inkscape:window-x="0"
     inkscape:window-y="30"
     inkscape:window-maximized="1"
     inkscape:current-layer="svg7384" />
  <defs
     id="defs10" />
  <metadata
     id="metadata90">
    <rdf:RDF>
      <cc:Work
         rdf:about="">
        <dc:format>image/svg+xml</dc:format>
        <dc:type
           rdf:resource="http://purl.org/dc/dcmitype/StillImage" />
        <dc:title>Gnome Symbolic Icon Theme</dc:title>
      </cc:Work>
    </rdf:RDF>
  </metadata>
  <title
     id="title9167">Gnome Symbolic Icon Theme</title>
  <g
     id="g834"
     transform="matrix(0.12731222,0,0,0.12731222,-0.29564242,-0.29608404)"
     style="stroke-width:7.85470533">
    <rect
       y="150.85916"
       x="77.234375"
       height="63.307064"
       width="101.53124"
       id="rect1325"
       style="opacity:1;vector-effect:none;fill:#ffffff;fill-opacity:1;stroke:none;stroke-width:15.70940971;stroke-linecap:square;stroke-linejoin:round;stroke-miterlimit:4;stroke-dasharray:none;stroke-dashoffset:0;stroke-opacity:1;paint-order:stroke fill markers" />
    <path
       style="font-style:normal;font-variant:normal;font-weight:normal;font-stretch:normal;font-size:medium;line-height:125%;font-family:Michroma;-inkscape-font-specification:Michroma;letter-spacing:0px;word-spacing:153.2408905px;fill:#333333;fill-opacity:1;stroke:none;stroke-width:1.03907466px;stroke-linecap:butt;stroke-linejoin:miter;stroke-opacity:1"
       d="m 54.171875,3.1191406 c -1.30204,0 -2.429368,0.4762433 -3.380859,1.4277344 -0.951492,0.9514914 -1.427735,2.0788201 -1.427735,3.3808594 v 9.6152346 h 6.384766 v 6.384765 h 19.230469 v -6.384765 h 6.384765 V 7.9277344 c 0,-1.3020393 -0.476243,-2.4293681 -1.427734,-3.3808594 C 78.984056,3.5953839 77.858681,3.1191406 76.556641,3.1191406 Z m 22.384766,3.15625 c 0.450706,0 0.826483,0.1748409 1.126953,0.5253906 0.35055,0.3004713 0.52539,0.6762477 0.52539,1.1269532 0,0.4507068 -0.17484,0.8264819 -0.52539,1.1269531 -0.30047,0.3004699 -0.676247,0.4492187 -1.126953,0.4492187 -0.450707,0 -0.826482,-0.1487488 -1.126953,-0.4492187 -0.300472,-0.3004712 -0.451172,-0.6762463 -0.451172,-1.1269531 0,-0.4507055 0.1507,-0.8264819 0.451172,-1.1269532 0.300471,-0.3505497 0.676246,-0.5253906 1.126953,-0.5253906 z M 58.978516,12.734375 h 12.769531 v 7.962891 H 58.978516 Z"
       transform="matrix(7.5593263,0,0,7.5593263,-366.1049,56.149718)"
       id="path1304"
       inkscape:connector-curvature="0" />
    <path
       style="font-style:normal;font-variant:normal;font-weight:normal;font-stretch:normal;font-size:medium;line-height:125%;font-family:Michroma;-inkscape-font-specification:Michroma;letter-spacing:0px;word-spacing:153.2408905px;fill:#0066ff;fill-opacity:1;stroke:none;stroke-width:7.85470486px;stroke-linecap:butt;stroke-linejoin:miter;stroke-opacity:1"
       d="M 55.316406,18.974609 V 67.240234 H 200.68359 V 18.974609 Z"
       id="path1298"
       inkscape:connector-curvature="0" />
    <path
       id="rect1306"
       d="m 55.316406,152.24023 v 36.51954 48.26562 H 200.68359 v -48.26562 -36.51954 z m 24.417969,0.17774 h 96.531245 v 60.18945 H 79.734375 Z"
       style="opacity:1;vector-effect:none;fill:#0066ff;fill-opacity:1;stroke:none;stroke-width:15.70940685;stroke-linecap:square;stroke-linejoin:round;stroke-miterlimit:4;stroke-dasharray:none;stroke-dashoffset:0;stroke-opacity:1;paint-order:stroke fill markers"
       inkscape:connector-curvature="0" />
  </g>
</svg>
