<?xml version="1.0" encoding="UTF-8" standalone="no"?>
<svg
   xmlns:dc="http://purl.org/dc/elements/1.1/"
   xmlns:cc="http://creativecommons.org/ns#"
   xmlns:rdf="http://www.w3.org/1999/02/22-rdf-syntax-ns#"
   xmlns:svg="http://www.w3.org/2000/svg"
   xmlns="http://www.w3.org/2000/svg"
   version="1.1"
   height="16"
   width="16"
   id="svg7384">
  <defs
     id="defs9" />
  <metadata
     id="metadata90">
    <rdf:RDF>
      <cc:Work
         rdf:about="">
        <dc:format>image/svg+xml</dc:format>
        <dc:type
           rdf:resource="http://purl.org/dc/dcmitype/StillImage" />
        <dc:title>Gnome Symbolic Icon Theme</dc:title>
      </cc:Work>
    </rdf:RDF>
  </metadata>
  <title
     id="title9167">Gnome Symbolic Icon Theme</title>
  <path
     id="path4597"
     d="M 6.72,2 C 6.52814,2.009 6.34777,2.0353 6.1575,2.0625 4.6353,2.27991 3.1793,3.0855 2.1887,4.4063 c -1.9812,2.6414 -1.4227,6.425 1.2188,8.4062 2.6415,1.9812 6.425,1.4227 8.4062,-1.2188 0.12268,-0.17164 0.18932,-0.38275 0.1875,-0.59375 v -1 h -1 c -0.31415,-10e-4 -0.62517,0.15406 -0.8125,0.40625 -1.3326,1.7767 -3.817,2.1139 -5.5938,0.78125 -1.7767,-1.3326 -2.1139,-3.817 -0.78125,-5.5938 1.3326,-1.7767 3.817,-2.1139 5.5938,-0.78125 0.42946,0.32212 0.76954,0.73295 1.0312,1.1875 h -1.4375 c -0.55228,0 -1,0.44772 -1,1 v 1 h 6 v -5 -1 h -1 c -0.55229,0 -1,0.44772 -1,1 V 4.6874 C 11.6189,4.10944 11.15188,3.6052 10.59495,3.1874 9.43935,2.32063 8.06295,1.9351 6.71995,1.9999 Z"
     style="color:#bebebe;text-indent:0;text-transform:none;fill:#797979;fill-opacity:1" />
</svg>
