<?xml version="1.0" encoding="UTF-8" standalone="no"?>
<svg
   xmlns:dc="http://purl.org/dc/elements/1.1/"
   xmlns:cc="http://creativecommons.org/ns#"
   xmlns:rdf="http://www.w3.org/1999/02/22-rdf-syntax-ns#"
   xmlns:svg="http://www.w3.org/2000/svg"
   xmlns="http://www.w3.org/2000/svg"
   width="16.000002"
   version="1.1"
   id="svg7384"
   height="16">
  <metadata
     id="metadata90">
    <rdf:RDF>
      <cc:Work
         rdf:about="">
        <dc:format>image/svg+xml</dc:format>
        <dc:type
           rdf:resource="http://purl.org/dc/dcmitype/StillImage" />
        <dc:title>Gnome Symbolic Icon Theme</dc:title>
      </cc:Work>
    </rdf:RDF>
  </metadata>
  <title
     id="title9167">Gnome Symbolic Icon Theme</title>
  <defs
     id="defs7386" />
  <g
     transform="translate(-101.0004,-847)"
     style="display:inline"
     id="layer9" />
  <g
     transform="translate(-101.0004,-847)"
     style="display:inline"
     id="layer10" />
  <g
     transform="translate(-101.0004,-847)"
     id="layer11" />
  <g
     transform="translate(-101.0004,-847)"
     style="display:inline"
     id="layer13" />
  <g
     transform="translate(-101.0004,-847)"
     id="layer14" />
  <g
     transform="translate(-101.0004,-847)"
     style="display:inline"
     id="layer15" />
  <g
     transform="translate(-101.0004,-847)"
     style="display:inline"
     id="g71291" />
  <g
     transform="translate(-101.0004,-847)"
     style="display:inline"
     id="g4953" />
  <g
     transform="translate(-101.0004,-847)"
     style="display:inline"
     id="layer12">
    <path
       style="font-size:medium;font-style:normal;font-variant:normal;font-weight:normal;font-stretch:normal;text-indent:0;text-align:start;text-decoration:none;line-height:normal;letter-spacing:normal;word-spacing:normal;text-transform:none;direction:ltr;block-progression:tb;writing-mode:lr-tb;text-anchor:start;baseline-shift:baseline;color:#000000;fill:#797979;fill-opacity:1;stroke:none;stroke-width:1.55467153;marker:none;visibility:visible;display:inline;overflow:visible;enable-background:new;font-family:Sans;-inkscape-font-specification:Sans"
       id="path5901"
       d="m 107.50781,847.99554 c -3.02886,0 -5.51073,2.47905 -5.51073,5.50447 0,3.02541 2.48187,5.50446 5.51073,5.50446 3.02885,0 5.51072,-2.47905 5.51072,-5.50446 0,-3.02542 -2.48187,-5.50447 -5.51072,-5.50447 z m 0,2.00893 c 1.94735,0 3.49951,1.55039 3.49951,3.49554 0,1.94514 -1.55216,3.49553 -3.49951,3.49553 -1.94736,0 -3.49952,-1.55039 -3.49952,-3.49553 0,-1.94515 1.55216,-3.49554 3.49952,-3.49554 z" />
    <path
       style="font-size:medium;font-style:normal;font-variant:normal;font-weight:normal;font-stretch:normal;text-indent:0;text-align:start;text-decoration:none;line-height:normal;letter-spacing:normal;word-spacing:normal;text-transform:none;direction:ltr;block-progression:tb;writing-mode:lr-tb;text-anchor:start;baseline-shift:baseline;color:#000000;fill:#797979;fill-opacity:1;stroke:none;stroke-width:2;marker:none;visibility:visible;display:inline;overflow:visible;enable-background:new;font-family:Sans;-inkscape-font-specification:Sans"
       id="path5903"
       d="m 110.8125,856 a 1.0001,1.0001 0 0 0 -0.5,1.71875 l 4,4 a 1.0054782,1.0054782 0 1 0 1.40625,-1.4375 l -4,-4 A 1.0001,1.0001 0 0 0 110.8125,856 z" />
  </g>
</svg>
