<?xml version="1.0" encoding="UTF-8" standalone="no"?>
<svg
   xmlns:dc="http://purl.org/dc/elements/1.1/"
   xmlns:cc="http://creativecommons.org/ns#"
   xmlns:rdf="http://www.w3.org/1999/02/22-rdf-syntax-ns#"
   xmlns:svg="http://www.w3.org/2000/svg"
   xmlns="http://www.w3.org/2000/svg"
   version="1.1"
   height="32"
   width="32"
   id="svg7384">
  <defs
     id="defs10" />
  <metadata
     id="metadata90">
    <rdf:RDF>
      <cc:Work
         rdf:about="">
        <dc:format>image/svg+xml</dc:format>
        <dc:type
           rdf:resource="http://purl.org/dc/dcmitype/StillImage" />
        <dc:title>Gnome Symbolic Icon Theme</dc:title>
      </cc:Work>
    </rdf:RDF>
  </metadata>
  <title
     id="title9167">Gnome Symbolic Icon Theme</title>
  <text
     id="text817"
     y="15.75"
     x="17.375"
     style="font-style:normal;font-weight:normal;font-size:29.33333397px;line-height:125%;font-family:sans-serif;letter-spacing:0px;word-spacing:0px;writing-mode:lr-tb;direction:ltr;fill:#000000;fill-opacity:1;stroke:none;stroke-width:1px;stroke-linecap:butt;stroke-linejoin:miter;stroke-opacity:1"
     xml:space="preserve"><tspan
       y="41.703125"
       x="17.375"
       id="tspan815"></tspan></text>
  <g
     id="g945">
    <path
       id="path939"
       style="font-style:normal;font-weight:normal;font-size:medium;line-height:125%;font-family:sans-serif;letter-spacing:0px;word-spacing:0px;writing-mode:lr-tb;direction:ltr;fill:#333333;fill-opacity:1;stroke:none;stroke-width:1px;stroke-linecap:butt;stroke-linejoin:miter;stroke-opacity:1"
       d="m 14.524464,15.716178 q 1.200537,1.200537 2.892203,1.200537 1.691666,0 2.892203,-1.200537 1.200536,-1.200537 1.200536,-2.892202 0,-1.691666 -1.200536,-2.892203 -1.200537,-1.2005369 -2.892203,-1.2005369 -1.691666,0 -2.892203,1.2005369 -1.200536,1.200537 -1.200536,2.892203 0,1.691665 1.200536,2.892202 z m 11.568811,-1.746235 2.455643,1.909945 q 0.381989,0.272849 0.10914,0.763978 l -2.346504,4.038169 q -0.218279,0.381989 -0.709408,0.21828 l -2.892203,-1.145967 q -1.145967,0.818548 -1.964515,1.145967 l -0.436558,3.055912 q -0.10914,0.491129 -0.545699,0.491129 h -4.693008 q -0.436559,0 -0.545699,-0.491129 L 14.087906,20.900315 Q 13.051078,20.463756 12.123391,19.754348 L 9.2311881,20.900315 Q 8.7400594,21.064024 8.52178,20.682035 L 6.175276,16.643866 Q 5.9024267,16.152737 6.2844157,15.879888 l 2.4556437,-1.909945 q -0.05457,-0.381989 -0.05457,-1.145967 0,-0.763978 0.05457,-1.145967 L 6.2844157,9.7680635 Q 5.9024267,9.4952142 6.175276,9.0040854 L 8.52178,4.9659159 Q 8.7400594,4.5839268 9.2311881,4.7476364 l 2.8922029,1.1459671 q 1.145967,-0.8185479 1.964515,-1.1459671 l 0.436558,-3.0559121 q 0.10914,-0.4911287 0.545699,-0.4911287 h 4.693008 q 0.436559,0 0.545699,0.4911287 l 0.436558,3.0559121 q 1.036828,0.4365589 1.964515,1.1459671 l 2.892203,-1.1459671 q 0.491129,-0.1637096 0.709408,0.2182795 l 2.346504,4.0381695 q 0.272849,0.4911288 -0.10914,0.7639781 l -2.455643,1.9099455 q 0.05457,0.381989 0.05457,1.145967 0,0.763978 -0.05457,1.145967 z" />
    <path
       style="fill:#ffb380;fill-opacity:1;stroke-width:1"
       d="m 2.4704147,17.681909 c -1.3634803,0 -1.66137716,0.09224 -2.03369836,0.629422 l -0.2198043,0.316956 -0.020978,4.520636 c -0.020029,4.303646 -0.01381,4.536596 0.1253404,4.851233 0.3118858,0.705048 0.92751906,0.927308 2.42157906,0.87441 1.0013107,-0.03542 1.2254793,-0.1051 1.5954285,-0.496133 0.2409193,-0.254613 0.3694433,-0.559309 0.3694433,-0.875454 0,-0.123917 0.01771,-0.225349 0.03911,-0.225349 0.021505,0 0.371267,0.191721 0.7772476,0.426105 2.7564245,1.591349 5.8851811,2.672481 8.7409601,3.020261 0.945261,0.115105 3.112765,0.09509 4.008754,-0.03721 3.465963,-0.511503 7.642898,-2.293635 10.754556,-4.588556 1.044416,-0.770269 2.283451,-2.017928 2.566559,-2.584247 0.376875,-0.753866 0.260157,-1.513667 -0.318907,-2.075517 -0.458099,-0.444479 -0.856205,-0.564369 -1.714339,-0.516068 -0.773357,0.04354 -1.405889,0.308903 -2.092911,0.878153 -0.839675,0.695729 -1.515596,1.068841 -2.878718,1.588692 -2.515431,0.959313 -6.575175,1.738922 -9.054765,1.738922 -0.605566,0 -0.70996,-0.02066 -0.891646,-0.176921 -0.252462,-0.217147 -0.275432,-0.563399 -0.04944,-0.74636 0.126901,-0.102781 0.422542,-0.135967 1.569348,-0.175877 1.692012,-0.05893 2.625476,-0.181538 4.839248,-0.636169 2.836151,-0.582437 3.442729,-0.836017 3.836038,-1.603229 0.188127,-0.366977 0.20531,-0.95692 0.03932,-1.350746 -0.16522,-0.391897 -0.629043,-0.811761 -1.044732,-0.945936 -0.933454,-0.30127 -2.317933,-0.32929 -5.935707,-0.119795 -1.693898,0.09814 -2.000861,0.05851 -3.29328,-0.424313 -1.304046,-0.487183 -1.646556,-0.57607 -2.411976,-0.626417 -1.258042,-0.08275 -4.1670676,0.256415 -6.3331697,0.738422 -0.5699879,0.126838 -1.0622521,0.231253 -1.0939193,0.231949 -0.031625,6.85e-4 -0.057558,-0.121356 -0.057558,-0.271227 0,-0.481628 -0.3083859,-0.951628 -0.7836992,-1.194223 C 3.6815258,17.70352 3.4658432,17.681888 2.470499,17.681888 Z"
       id="path848" />
  </g>
</svg>
