<?xml version="1.0" encoding="UTF-8" standalone="no"?>
<svg
   xmlns:dc="http://purl.org/dc/elements/1.1/"
   xmlns:cc="http://creativecommons.org/ns#"
   xmlns:rdf="http://www.w3.org/1999/02/22-rdf-syntax-ns#"
   xmlns:svg="http://www.w3.org/2000/svg"
   xmlns="http://www.w3.org/2000/svg"
   version="1.1"
   height="32"
   width="32"
   id="svg7384">
  <defs
     id="defs10" />
  <metadata
     id="metadata90">
    <rdf:RDF>
      <cc:Work
         rdf:about="">
        <dc:format>image/svg+xml</dc:format>
        <dc:type
           rdf:resource="http://purl.org/dc/dcmitype/StillImage" />
        <dc:title>Gnome Symbolic Icon Theme</dc:title>
      </cc:Work>
    </rdf:RDF>
  </metadata>
  <title
     id="title9167">Gnome Symbolic Icon Theme</title>
  <g
     id="g835">
    <path
       id="text887"
       d="m 3.4406623,5.0832851 c -0.7802777,0 -1.4703314,0.2975706 -2.0670142,0.8942536 C 0.77696513,6.5742216 0.47939441,7.2623806 0.47939441,8.0426583 V 28.559338 c 0,0.780277 0.29757072,1.470331 0.89425369,2.067014 0.5966828,0.596683 1.2867365,0.894254 2.0670142,0.894254 H 23.957342 c 0.780278,0 1.468436,-0.297571 2.065119,-0.894254 0.596683,-0.596683 0.894254,-1.286737 0.894254,-2.067014 V 11.197176 h -0.64985 c -0.06446,0.312799 -0.0806,0.644113 -0.215985,0.928356 -0.209304,0.459635 -0.540729,0.904112 -1.006035,1.256123 -0.52824,0.416225 -1.225687,0.62522 -1.985546,0.62522 -0.759897,10e-7 -1.458432,-0.199473 -1.998808,-0.62522 -0.324042,-0.245473 -0.486336,-0.555603 -0.67448,-0.854466 v 1.34517 H 16.632798 V 5.0832851 Z m 8.8118087,5.8524359 h 2.891168 V 25.66817 h -2.891168 z m 12.282725,0.143989 c -0.0047,0.01745 -0.02697,0.0389 -0.0322,0.05683 -0.01047,0.02833 -7.2e-4,0.0466 -0.01326,0.07579 z m -4.473162,1.03635 0.0095,0.01895 c -0.0015,-0.0029 -5.37e-4,-0.0066 -0.0019,-0.0095 -0.0015,-0.0034 -0.0061,-0.0062 -0.0076,-0.0095 z M 6.3318298,15.340677 H 9.2912031 V 25.66817 H 6.3318298 Z m 11.7730762,4.406852 h 2.959374 v 5.920641 h -2.959374 z"
       style="font-style:normal;font-weight:normal;font-size:36.33898544px;line-height:125%;font-family:sans-serif;letter-spacing:0px;word-spacing:19.15367126px;fill:#aa0088;fill-opacity:1;stroke:none;stroke-width:1px;stroke-linecap:butt;stroke-linejoin:miter;stroke-opacity:1" />
    <path
       id="path826"
       style="font-style:normal;font-variant:normal;font-weight:normal;font-stretch:normal;font-size:medium;line-height:125%;font-family:'League Gothic';-inkscape-font-specification:'League Gothic';letter-spacing:0px;word-spacing:8.82637596px;fill:#00d400;fill-opacity:1;stroke:none;stroke-width:1px;stroke-linecap:butt;stroke-linejoin:miter;stroke-opacity:1"
       d="M 29.022097,10.22885 H 26.221755 V 8.6401737 L 28.87118,0.61317768 h 1.811 V 8.6401737 h 0.838426 V 10.22885 H 30.68218 v 2.675665 H 29.022097 Z M 27.764458,8.6401737 h 1.257639 V 4.4260008 h -0.100611 l -0.100611,0.367904 z m -2.289164,1.7391823 c -0.01677,0.501687 -0.117379,0.953206 -0.301833,1.337833 -0.150917,0.334458 -0.385676,0.652193 -0.721046,0.903037 -0.335371,0.267566 -0.78812,0.418073 -1.391786,0.418073 -0.603667,0 -1.073186,-0.150507 -1.408556,-0.418073 -0.33537,-0.250844 -0.553361,-0.568579 -0.704277,-0.903037 -0.184454,-0.384627 -0.285065,-0.836146 -0.301833,-1.337833 V 3.1383369 c 0.01677,-0.4849644 0.117379,-0.936483 0.301833,-1.3211098 0.150916,-0.3344581 0.368907,-0.6689164 0.704277,-0.91975998 0.33537,-0.25084363 0.804889,-0.41807271 1.408556,-0.41807271 0.603666,0 1.056415,0.16722908 1.391786,0.41807271 0.33537,0.25084358 0.570129,0.58530188 0.721046,0.91975998 0.184454,0.3846268 0.285065,0.8361454 0.301833,1.3211098 z M 23.664295,3.1383369 c 0,-0.3344582 -0.06707,-0.568579 -0.234759,-0.7692538 -0.08384,-0.083614 -0.217991,-0.1337834 -0.368907,-0.1337834 -0.318603,0 -0.469519,0.2341208 -0.536594,0.4515186 -0.05031,0.1337833 -0.06707,0.2842894 -0.06707,0.4515186 v 7.2410191 c 0,0.351181 0.08384,0.585301 0.251527,0.769254 0.08385,0.08362 0.201222,0.133783 0.35214,0.133783 0.318601,0 0.469518,-0.200675 0.536592,-0.451518 0.05031,-0.117061 0.06707,-0.267567 0.06707,-0.451519 z M 16.396454,3.2721201 V 2.1182395 c 0.754584,-0.1505063 1.207333,-0.5351332 1.525935,-0.8695913 0.167685,-0.2006749 0.301834,-0.41807271 0.402444,-0.63547052 h 1.089954 V 12.904515 h -1.811 V 3.2721201 Z" />
  </g>
</svg>
