<?xml version="1.0" encoding="UTF-8" standalone="no"?>
<svg
   xmlns:dc="http://purl.org/dc/elements/1.1/"
   xmlns:cc="http://creativecommons.org/ns#"
   xmlns:rdf="http://www.w3.org/1999/02/22-rdf-syntax-ns#"
   xmlns:svg="http://www.w3.org/2000/svg"
   xmlns="http://www.w3.org/2000/svg"
   xmlns:sodipodi="http://sodipodi.sourceforge.net/DTD/sodipodi-0.dtd"
   xmlns:inkscape="http://www.inkscape.org/namespaces/inkscape"
   id="svg7384"
   width="32"
   height="32"
   version="1.1"
   sodipodi:docname="stock.svg"
   inkscape:version="0.92.3 (2405546, 2018-03-11)">
  <sodipodi:namedview
     pagecolor="#ffffff"
     bordercolor="#666666"
     borderopacity="1"
     objecttolerance="10"
     gridtolerance="10"
     guidetolerance="10"
     inkscape:pageopacity="0"
     inkscape:pageshadow="2"
     inkscape:window-width="1366"
     inkscape:window-height="712"
     id="namedview8"
     showgrid="false"
     showguides="true"
     inkscape:guide-bbox="true"
     inkscape:zoom="2.8284271"
     inkscape:cx="-72.530678"
     inkscape:cy="17.183267"
     inkscape:window-x="0"
     inkscape:window-y="30"
     inkscape:window-maximized="1"
     inkscape:current-layer="svg7384" />
  <defs
     id="defs10" />
  <metadata
     id="metadata90">
    <rdf:RDF>
      <cc:Work
         rdf:about="">
        <dc:format>image/svg+xml</dc:format>
        <dc:type
           rdf:resource="http://purl.org/dc/dcmitype/StillImage" />
        <dc:title>Gnome Symbolic Icon Theme</dc:title>
      </cc:Work>
    </rdf:RDF>
  </metadata>
  <title
     id="title9167">Gnome Symbolic Icon Theme</title>
  <g
     transform="matrix(0.66731834,0,0,0.66731834,-27.678071,22.021505)"
     id="text1147"
     style="font-style:normal;font-weight:normal;font-size:48px;line-height:125%;font-family:sans-serif;letter-spacing:0px;word-spacing:25.29999924px;fill:#aa0088;fill-opacity:1;stroke:none;stroke-width:1.49853516px;stroke-linecap:butt;stroke-linejoin:miter;stroke-opacity:1"
     aria-label="">
    <path
       style="stroke-width:2.24560761px;fill:#aa0088;fill-opacity:1"
       id="path1149"
       d="M 84.8125,-22.5 67.515625,-32.484375 Q 66.578125,-33 65.5,-33 q -1.078125,0 -2.0625,0.515625 L 46.140625,-22.5 q -0.9375,0.5625 -1.5,1.5 Q 44.125,-20.0625 44.125,-18.984375 V 0.9375 q 0,1.078125 0.515625,2.015625 0.5625,0.9375 1.5,1.5 L 63.4375,14.4375 q 0.46875,0.28125 0.984375,0.375 0.515625,0.140625 1.03125,0.140625 0.515625,0 1.03125,-0.140625 Q 67,14.671875 67.46875,14.4375 L 84.765625,4.453125 q 0.9375,-0.5625 1.453125,-1.5 0.5625,-0.9375 0.5625,-2.015625 V -18.984375 Q 86.78125,-20.0625 86.265625,-21 85.75,-21.9375 84.8125,-22.5 Z M 65.5,-9 V 6.28125 L 52.28125,-1.359375 v -15.28125 L 65.5,-24.28125 l 13.21875,7.640625 z" />
  </g>
  <path
     style="opacity:1;vector-effect:none;fill:#00d400;fill-opacity:1;stroke:none;stroke-width:2;stroke-linecap:square;stroke-linejoin:round;stroke-miterlimit:4;stroke-dasharray:none;stroke-dashoffset:0;stroke-opacity:1;paint-order:stroke fill markers"
     d="m 16.03128,16.01564 8.821115,-5.098729 v 10.122151 l -8.821115,5.174036 z"
     id="path831"
     inkscape:connector-curvature="0"
     sodipodi:nodetypes="ccccc" />
</svg>
